<?xml version="1.0" encoding="utf-8"?>
<!-- Generator: Adobe Illustrator 16.0.0, SVG Export Plug-In . SVG Version: 6.00 Build 0)  -->
<!DOCTYPE svg PUBLIC "-//W3C//DTD SVG 1.1//EN" "http://www.w3.org/Graphics/SVG/1.1/DTD/svg11.dtd">
<svg version="1.1" xmlns="http://www.w3.org/2000/svg" xmlns:xlink="http://www.w3.org/1999/xlink" x="0px" y="0px"
	 width="371.49px" height="121.946px" viewBox="0 0 371.49 121.946" enable-background="new 0 0 371.49 121.946"
	 xml:space="preserve">
<g id="Layer_6">
</g>
<g id="Floor">
</g>
<g id="Layer_2">
</g>
<g id="Layer_1">
</g>
<g id="Type">
</g>
<g id="Clock_pin">
	<g>
		<g>
			<path fill="#182750" d="M31.69,29.992c-3.242,3.218-7.324,4.826-12.251,4.826S10.429,33.21,7.19,29.992
				c-3.24-3.217-4.86-7.401-4.86-12.551c0-5.147,1.62-9.342,4.86-12.582C10.429,1.621,14.513,0,19.439,0s9.009,1.621,12.251,4.859
				c3.238,3.24,4.859,7.435,4.859,12.582C36.55,22.591,34.929,26.775,31.69,29.992z M11.784,26.331
				c1.996,2.153,4.549,3.228,7.655,3.228s5.659-1.074,7.656-3.228c1.998-2.153,2.996-5.048,2.996-8.688
				c0-3.64-1.009-6.613-3.029-8.921c-2.021-2.309-4.561-3.464-7.623-3.464c-3.062,0-5.603,1.155-7.622,3.464
				c-2.021,2.308-3.029,5.281-3.029,8.921C8.788,21.283,9.786,24.178,11.784,26.331z"/>
			<path fill="#182750" d="M56.722,52.128h-17.51v-2.862l5.658-2.196V4.994h-5.592V1.332c1.73-0.843,3.628-1.267,5.692-1.267
				s3.538,0.378,4.427,1.133c0.888,0.756,1.42,1.863,1.598,3.329C53.17,1.51,56.41,0,60.716,0c3.506,0,6.745,1.198,9.72,3.595
				c1.509,1.244,2.718,3.007,3.628,5.292c0.91,2.287,1.365,4.938,1.365,7.955c0,3.02-0.512,5.716-1.531,8.09
				c-1.021,2.375-2.396,4.251-4.127,5.625c-3.507,2.798-7.59,4.195-12.251,4.195c-1.864,0-3.994-0.311-6.392-0.933v13.25
				l5.594,2.196V52.128z M57.52,29.492c3.596,0,6.401-1.065,8.423-3.196c2.019-2.13,3.028-5.102,3.028-8.921
				c0-3.816-0.977-6.8-2.929-8.953c-1.954-2.153-4.039-3.229-6.258-3.229c-3.861,0-6.748,1.221-8.656,3.661v19.44
				C53.614,29.094,55.745,29.492,57.52,29.492z"/>
			<path fill="#182750" d="M96.331,34.752c-5.015,0-9.086-1.433-12.217-4.294c-3.128-2.862-4.691-7.045-4.691-12.55
				c0-5.502,1.597-9.862,4.793-13.082C87.411,1.609,91.139,0,95.399,0c10.12,0,15.18,5.992,15.18,17.975H85.88v0.333
				c0,3.153,1.108,5.814,3.328,7.988c2.219,2.176,5.236,3.263,9.055,3.263c1.642,0,3.195-0.188,4.66-0.566
				c1.465-0.376,2.529-0.764,3.195-1.165l0.933-0.531l1.93,3.462c-0.134,0.088-0.322,0.232-0.565,0.434
				c-0.244,0.198-0.766,0.521-1.564,0.965s-1.665,0.843-2.597,1.198C101.901,34.287,99.261,34.752,96.331,34.752z M101.691,7.424
				c-1.577-1.442-3.618-2.166-6.126-2.166s-4.583,0.701-6.224,2.098c-1.643,1.399-2.708,3.52-3.196,6.358h18.242
				C104.165,10.964,103.267,8.866,101.691,7.424z"/>
			<path fill="#182750" d="M153.519,34.086H136.01v-2.861l5.326-2.199v-15.91c0-2.619-0.435-4.571-1.298-5.858
				c-0.865-1.288-2.43-1.931-4.693-1.931c-3.641,0-6.902,1.442-9.787,4.327v19.372l5.659,2.199v2.861h-17.509v-2.861l5.592-2.199
				V5.258h-5.592V1.264C115.438,0.423,117.413,0,119.633,0c2.218,0,3.737,0.489,4.561,1.465c0.82,0.977,1.274,2.442,1.364,4.393
				c0.621-0.797,1.553-1.707,2.797-2.728c2.617-2.087,5.613-3.13,8.986-3.13s5.926,0.965,7.656,2.896
				c1.732,1.93,2.596,4.561,2.596,7.89v18.239l5.926,2.199V34.086z"/>
		</g>
		<path fill="#182750" d="M27.238,74.688h-4.214l-0.938-3.346c-1.16-1.113-2.941-1.669-5.348-1.669c-2.41,0-4.271,0.312-5.587,0.936
			c-1.315,0.626-1.974,1.459-1.974,2.507s0.491,2.028,1.472,2.942c0.98,0.915,1.982,1.598,3.011,2.041
			c1.025,0.447,2.853,1.114,5.484,2.005c2.631,0.896,4.781,2.072,6.453,3.544c1.672,1.473,2.508,3.413,2.508,5.82
			c0,3.209-1.169,5.652-3.512,7.326c-2.34,1.669-5.015,2.504-8.025,2.504c-3.01,0-5.596-0.376-7.758-1.135
			c-2.162-0.756-3.711-1.517-4.648-2.277l-1.338-1.132v-7.16h4.014l1.405,4.149c0.041,0.135,0.401,0.355,1.071,0.668
			c2.094,1.07,4.188,1.605,6.283,1.605c2.098,0,3.703-0.322,4.817-0.97c1.114-0.646,1.671-1.56,1.671-2.742
			c0-1.184-0.625-2.31-1.873-3.378s-3.332-2.037-6.252-2.91c-2.922-0.869-5.373-2.141-7.355-3.812
			c-1.984-1.676-2.979-3.62-2.979-5.852c0-3.346,1.172-5.852,3.513-7.525c2.339-1.67,5.358-2.509,9.062-2.509
			c1.828,0,3.654,0.228,5.484,0.672c1.828,0.446,3.211,0.891,4.146,1.337l1.405,0.669V74.688z"/>
		<path fill="#182750" d="M51.582,99.234c-5.039,0-9.13-1.439-12.271-4.316c-3.145-2.872-4.715-7.079-4.715-12.604
			c0-5.53,1.604-9.91,4.813-13.145c3.21-3.231,6.956-4.85,11.237-4.85c10.165,0,15.247,6.023,15.247,18.06H41.084v0.335
			c0,3.166,1.114,5.844,3.343,8.028c2.229,2.182,5.26,3.275,9.096,3.275c1.648,0,3.211-0.188,4.682-0.568
			c1.471-0.381,2.543-0.771,3.209-1.17l0.938-0.535l1.939,3.476c-0.133,0.089-0.324,0.237-0.569,0.437
			c-0.243,0.2-0.769,0.524-1.569,0.969c-0.803,0.448-1.674,0.848-2.609,1.205C57.178,98.764,54.524,99.234,51.582,99.234z
			 M56.967,71.779c-1.583-1.451-3.636-2.174-6.153-2.174c-2.52,0-4.605,0.702-6.255,2.105c-1.649,1.405-2.718,3.533-3.21,6.389
			h18.326C59.45,75.335,58.548,73.229,56.967,71.779z"/>
		<path fill="#182750" d="M96.326,74.688h-4.214l-0.937-3.346c-1.16-1.113-2.944-1.669-5.351-1.669s-4.271,0.312-5.584,0.936
			c-1.316,0.626-1.975,1.459-1.975,2.507s0.491,2.028,1.473,2.942c0.98,0.915,1.982,1.598,3.01,2.041
			c1.023,0.447,2.853,1.114,5.482,2.005c2.633,0.896,4.785,2.072,6.455,3.544c1.674,1.473,2.508,3.413,2.508,5.82
			c0,3.209-1.169,5.652-3.512,7.326c-2.34,1.669-5.014,2.504-8.025,2.504c-3.008,0-5.596-0.376-7.758-1.135
			c-2.162-0.756-3.711-1.517-4.647-2.277l-1.339-1.132v-7.16h4.014l1.405,4.149c0.044,0.135,0.399,0.355,1.069,0.668
			c2.094,1.07,4.191,1.605,6.288,1.605c2.093,0,3.698-0.322,4.813-0.97c1.113-0.646,1.673-1.56,1.673-2.742
			c0-1.184-0.625-2.31-1.872-3.378c-1.25-1.068-3.333-2.037-6.254-2.91c-2.921-0.869-5.373-2.141-7.356-3.812
			c-1.985-1.676-2.977-3.62-2.977-5.852c0-3.346,1.172-5.852,3.511-7.525c2.342-1.67,5.361-2.509,9.062-2.509
			c1.827,0,3.654,0.228,5.484,0.672c1.827,0.446,3.209,0.891,4.146,1.337l1.405,0.669V74.688z"/>
		<path fill="#182750" d="M128.294,74.688h-4.213l-0.936-3.346c-1.161-1.113-2.942-1.669-5.35-1.669
			c-2.408,0-4.271,0.312-5.586,0.936c-1.314,0.626-1.975,1.459-1.975,2.507s0.492,2.028,1.473,2.942
			c0.98,0.915,1.982,1.598,3.011,2.041c1.024,0.447,2.853,1.114,5.484,2.005c2.63,0.896,4.782,2.072,6.452,3.544
			c1.674,1.473,2.509,3.413,2.509,5.82c0,3.209-1.17,5.652-3.51,7.326c-2.343,1.669-5.017,2.504-8.026,2.504
			s-5.598-0.376-7.758-1.135c-2.164-0.756-3.713-1.517-4.649-2.277l-1.338-1.132v-7.16h4.013l1.405,4.149
			c0.044,0.135,0.399,0.355,1.071,0.668c2.094,1.07,4.191,1.605,6.285,1.605c2.096,0,3.701-0.322,4.816-0.97
			c1.113-0.646,1.672-1.56,1.672-2.742c0-1.184-0.626-2.31-1.874-3.378c-1.249-1.068-3.332-2.037-6.253-2.91
			c-2.921-0.869-5.373-2.141-7.355-3.812c-1.984-1.676-2.978-3.62-2.978-5.852c0-3.346,1.172-5.852,3.512-7.525
			c2.341-1.67,5.36-2.509,9.062-2.509c1.828,0,3.656,0.228,5.486,0.672c1.826,0.446,3.209,0.891,4.146,1.337l1.402,0.669V74.688z"/>
		<path fill="#182750" d="M152.976,98.565h-17.591v-2.876l5.618-2.207V69.605h-5.618v-4.014c1.739-0.845,3.755-1.272,6.054-1.272
			c2.295,0,3.844,0.55,4.648,1.641c0.801,1.093,1.199,2.755,1.199,4.979v22.543l5.689,2.207V98.565z M147.558,56.629
			c-1.027,1.028-2.275,1.541-3.746,1.541s-2.719-0.513-3.744-1.541c-1.027-1.023-1.537-2.275-1.537-3.747
			c0-1.469,0.51-2.717,1.537-3.74c1.025-1.028,2.273-1.539,3.744-1.539s2.719,0.511,3.746,1.539c1.023,1.023,1.537,2.271,1.537,3.74
			C149.095,54.354,148.581,55.605,147.558,56.629z"/>
		<path fill="#182750" d="M241.104,98.565h-17.591v-2.876l5.35-2.207V77.496c0-2.63-0.434-4.591-1.303-5.881
			c-0.871-1.295-2.441-1.941-4.713-1.941c-3.658,0-6.936,1.448-9.832,4.345v19.464l5.682,2.207v2.876h-17.588v-2.876l5.617-2.207
			V69.605h-5.617v-4.014c1.738-0.845,3.723-1.272,5.951-1.272c2.23,0,3.758,0.491,4.584,1.476c0.822,0.979,1.279,2.45,1.371,4.411
			c0.623-0.802,1.557-1.715,2.809-2.739c2.629-2.1,5.639-3.147,9.027-3.147s5.951,0.97,7.691,2.911
			c1.738,1.938,2.607,4.584,2.607,7.925v18.327l5.954,2.207V98.565z"/>
		<path fill="#182750" d="M269.93,74.688h-4.213l-0.936-3.346c-1.162-1.113-2.943-1.669-5.352-1.669
			c-2.406,0-4.27,0.312-5.584,0.936c-1.316,0.626-1.975,1.459-1.975,2.507s0.49,2.028,1.475,2.942
			c0.979,0.915,1.982,1.598,3.008,2.041c1.025,0.447,2.852,1.114,5.484,2.005c2.629,0.896,4.781,2.072,6.453,3.544
			c1.672,1.473,2.51,3.413,2.51,5.82c0,3.209-1.172,5.652-3.514,7.326c-2.338,1.669-5.016,2.504-8.025,2.504
			c-3.008,0-5.596-0.376-7.758-1.135c-2.162-0.756-3.713-1.517-4.646-2.277l-1.34-1.132v-7.16h4.014l1.404,4.149
			c0.045,0.135,0.402,0.355,1.07,0.668c2.096,1.07,4.191,1.605,6.287,1.605s3.699-0.322,4.814-0.97
			c1.115-0.646,1.674-1.56,1.674-2.742c0-1.184-0.627-2.31-1.875-3.378s-3.332-2.037-6.25-2.91
			c-2.922-0.869-5.375-2.141-7.359-3.812c-1.984-1.676-2.975-3.62-2.975-5.852c0-3.346,1.172-5.852,3.51-7.525
			c2.34-1.67,5.361-2.509,9.062-2.509c1.828,0,3.654,0.228,5.484,0.672c1.828,0.446,3.211,0.891,4.146,1.337l1.404,0.669V74.688z"/>
		<path fill="#1B91CD" d="M176.989,57.322c-12.781,0-23.141,10.361-23.141,23.142c0,23.096,23.141,41.482,23.141,41.482
			s23.141-18.387,23.141-41.482C200.13,67.684,189.772,57.322,176.989,57.322z M176.989,93.335c-7.311,0-13.24-5.928-13.24-13.241
			c0-7.311,5.93-13.239,13.24-13.239c7.314,0,13.246,5.929,13.246,13.239C190.235,87.407,184.304,93.335,176.989,93.335z"/>
		<circle fill="#FFFFFF" cx="176.989" cy="81.186" r="17.451"/>
		<g>
			<polygon fill="#182750" points="186.468,89.974 174.556,84.178 174.556,70.357 179.423,70.357 179.423,81.131 188.599,85.597 			
				"/>
		</g>
	</g>
	<rect x="288.831" y="63.884" fill="#1B91CD" width="82.659" height="35.561"/>
	<g>
		<path fill="#FFFFFF" d="M298.67,71.896h5.541c2.604,0,4.486,0.389,5.649,1.167c1.162,0.778,1.744,2.008,1.744,3.689
			c0,1.163-0.324,2.123-0.973,2.879c-0.649,0.756-1.595,1.245-2.838,1.469v0.134c2.979,0.511,4.468,2.076,4.468,4.696
			c0,1.754-0.593,3.122-1.778,4.106c-1.185,0.983-2.842,1.476-4.971,1.476h-6.843V71.896z M300.95,80.296h3.757
			c1.61,0,2.769-0.253,3.476-0.759c0.707-0.505,1.06-1.356,1.06-2.556c0-1.101-0.394-1.894-1.181-2.382
			c-0.787-0.487-2.039-0.731-3.757-0.731h-3.354V80.296z M300.95,82.228v7.34h4.093c1.583,0,2.775-0.307,3.576-0.919
			c0.8-0.613,1.2-1.572,1.2-2.879c0-1.216-0.409-2.11-1.228-2.683c-0.818-0.573-2.064-0.859-3.736-0.859H300.95z"/>
		<path fill="#FFFFFF" d="M327.409,91.513h-10.935V71.896h10.935v2.025h-8.654v6.32h8.132v2.013h-8.132v7.219h8.654V91.513z"/>
		<path fill="#FFFFFF" d="M337.795,91.513h-2.28V73.922h-6.213v-2.025h14.706v2.025h-6.213V91.513z"/>
		<path fill="#FFFFFF" d="M359.29,91.513l-2.441-6.239h-7.863l-2.415,6.239h-2.308l7.755-19.697h1.919l7.716,19.697H359.29z
			 M356.138,83.221l-2.281-6.078c-0.295-0.77-0.6-1.713-0.912-2.831c-0.197,0.858-0.479,1.803-0.846,2.831l-2.308,6.078H356.138z"/>
	</g>
</g>
</svg>
